<svg xmlns="http://www.w3.org/2000/svg" viewBox="0 0 64 64" width="64" height="64">
  <defs>
    <linearGradient id="bg" x1="0" y1="0" x2="1" y2="1">
      <stop offset="0%" stop-color="#0a0f1a"/>
      <stop offset="100%" stop-color="#111827"/>
    </linearGradient>
  </defs>

  <rect width="64" height="64" rx="14" fill="url(#bg)"/>

  <g fill="#f5f7fa">
    <path d="M14 44
             C 16 34, 22 28, 20 20
             C 19 16, 22 12, 27 12
             C 25 15, 26 18, 29 19
             C 33 20, 34 16, 38 15
             C 36 18, 37 21, 40 22
             C 44 23, 47 20, 50 22
             C 47 24, 45 27, 46 30
             C 41 27, 36 28, 33 32
             C 30 36, 31 40, 35 43
             C 30 44, 26 42, 24 38
             C 22 41, 19 43, 14 44 Z"/>
    <path d="M27 12 C 25 10, 22 10, 20 12 C 22 12.5, 24 13, 25 15 Z"/>
    <path d="M29 14 L 31 8 L 32 15 Z"/>
    <circle cx="23.5" cy="14.5" r="1" fill="#0a0f1a"/>
    <path d="M35 27 C 40 22, 48 22, 53 26 C 48 26, 44 28, 41 31 C 46 30, 51 31, 54 34
              C 48 33, 43 34, 39 37 C 37 34, 36 30, 35 27 Z" fill-opacity="0.85"/>
    <path d="M14 44 C 10 46, 8 50, 9 54 C 11 51, 13 49, 16 48 Z"/>
  </g>
</svg>
